<svg width="50" height="41" viewBox="0 0 50 41" fill="none" xmlns="http://www.w3.org/2000/svg">
<path d="M48.6667 35.6667C48.6667 36.8159 48.2101 37.9181 47.3975 38.7308C46.5848 39.5435 45.4826 40 44.3333 40H5.33333C4.18406 40 3.08186 39.5435 2.2692 38.7308C1.45655 37.9181 1 36.8159 1 35.6667V11.8333C1 10.6841 1.45655 9.58186 2.2692 8.7692C3.08186 7.95655 4.18406 7.5 5.33333 7.5H14L18.3333 1H31.3333L35.6667 7.5H44.3333C45.4826 7.5 46.5848 7.95655 47.3975 8.7692C48.2101 9.58186 48.6667 10.6841 48.6667 11.8333V35.6667Z" stroke="white" stroke-width="2" stroke-linecap="round" stroke-linejoin="round"/>
<path d="M24.8333 31.3336C29.6198 31.3336 33.5 27.4534 33.5 22.6669C33.5 17.8804 29.6198 14.0002 24.8333 14.0002C20.0468 14.0002 16.1666 17.8804 16.1666 22.6669C16.1666 27.4534 20.0468 31.3336 24.8333 31.3336Z" stroke="white" stroke-width="2" stroke-linecap="round" stroke-linejoin="round"/>
</svg>
