<svg width="52" height="56" viewBox="0 0 52 56" fill="none" xmlns="http://www.w3.org/2000/svg">
<path d="M6.35325 49.4573H39.6243L38.0353 44.3123C38.2709 44.5177 51.6666 56 51.6666 56V5.775C51.5079 2.653 48.8199 0 45.4879 0L6.36492 0.007C3.03525 0.007 0.333252 2.66467 0.333252 5.78667V43.68C0.333252 46.9723 3.03059 49.4573 6.35325 49.4573ZM30.9653 13.2603L30.8883 13.2883L30.9163 13.2603H30.9653ZM13.1596 16.2213C17.4366 13.1087 21.4009 13.258 21.4009 13.258L21.7206 13.573C16.4869 14.8213 14.1139 17.1593 14.1139 17.1593C14.3566 17.108 24.9243 11.011 37.7296 17.3133C37.7296 17.3133 35.3519 15.127 30.4403 13.727L30.8743 13.3C31.5533 13.3023 35.1466 13.4283 38.9919 16.24C38.9919 16.24 43.2946 23.59 43.2946 32.62C43.1523 32.4473 40.6253 36.5073 34.1223 36.6473C34.1223 36.6473 33.0209 35.4013 32.2369 34.314C36.0403 33.222 37.4636 31.038 37.4636 31.038C30.0599 35.7 23.5709 34.972 15.8079 31.822C15.7356 31.822 15.7029 31.7893 15.6656 31.752V31.738C15.6283 31.703 15.5956 31.668 15.5233 31.668H15.3833C14.9073 31.3553 14.5899 31.2013 14.5899 31.2013C14.5899 31.2013 16.0109 33.3853 19.6626 34.4773C18.7036 35.5717 17.7539 36.8153 17.7539 36.8153C11.2533 36.6613 8.88259 32.6013 8.88259 32.6013C8.88259 23.5573 13.1596 16.2213 13.1596 16.2213Z" fill="#6578A9"/>
<path d="M31.3852 29.799C33.0442 29.799 34.3952 28.399 34.3952 26.6724C34.3952 24.9574 33.0512 23.5574 31.3852 23.5574V23.5644C29.7332 23.5644 28.3799 24.9597 28.3752 26.6864C28.3752 28.399 29.7262 29.799 31.3852 29.799Z" fill="#6578A9"/>
<path d="M20.6099 29.799C22.2689 29.799 23.6199 28.399 23.6199 26.6724C23.6199 24.9574 22.2782 23.5574 20.6192 23.5574L20.6099 23.5644C18.9509 23.5644 17.5999 24.9597 17.5999 26.6864C17.5999 28.399 18.9509 29.799 20.6099 29.799Z" fill="#6578A9"/>
</svg>
