<svg width="79" height="20" viewBox="0 0 79 20" fill="none" xmlns="http://www.w3.org/2000/svg">
<path d="M36.2056 10.0223H37.6258V14.0609C37.113 14.4849 36.5163 14.8104 35.8358 15.0372C35.1553 15.2641 34.4452 15.3775 33.7056 15.3775C32.6602 15.3775 31.7183 15.1506 30.88 14.697C30.0417 14.2334 29.381 13.6023 28.8977 12.8034C28.4243 11.9947 28.1876 11.0874 28.1876 10.0814C28.1876 9.07548 28.4243 8.16816 28.8977 7.35945C29.381 6.55074 30.0417 5.91956 30.88 5.4659C31.7282 5.01223 32.6799 4.7854 33.7351 4.7854C34.5636 4.7854 35.3131 4.92347 35.9837 5.19962C36.6642 5.4659 37.2412 5.86039 37.7146 6.38309L36.7974 7.30028C35.9689 6.50143 34.9679 6.10201 33.7943 6.10201C33.0053 6.10201 32.2953 6.2746 31.6641 6.61978C31.0427 6.9551 30.5546 7.42849 30.1995 8.03995C29.8445 8.64154 29.667 9.32204 29.667 10.0814C29.667 10.831 29.8445 11.5115 30.1995 12.1229C30.5546 12.7245 31.0427 13.1979 31.6641 13.5431C32.2953 13.8883 33.0004 14.0609 33.7795 14.0609C34.7066 14.0609 35.5153 13.839 36.2056 13.3952V10.0223Z" fill="white"/>
<path d="M48.0916 15.3775C47.0462 15.3775 46.1043 15.1506 45.266 14.697C44.4277 14.2334 43.767 13.5973 43.2837 12.7886C42.8103 11.9799 42.5736 11.0775 42.5736 10.0814C42.5736 9.08535 42.8103 8.18295 43.2837 7.37424C43.767 6.56554 44.4277 5.93435 45.266 5.48069C46.1043 5.01716 47.0462 4.7854 48.0916 4.7854C49.1271 4.7854 50.064 5.01716 50.9023 5.48069C51.7406 5.93435 52.3964 6.56554 52.8698 7.37424C53.3432 8.17309 53.5799 9.07548 53.5799 10.0814C53.5799 11.0874 53.3432 11.9947 52.8698 12.8034C52.3964 13.6023 51.7406 14.2334 50.9023 14.697C50.064 15.1506 49.1271 15.3775 48.0916 15.3775ZM48.0916 14.0609C48.8509 14.0609 49.5314 13.8883 50.133 13.5431C50.7445 13.1979 51.2228 12.7245 51.568 12.1229C51.923 11.5115 52.1006 10.831 52.1006 10.0814C52.1006 9.3319 51.923 8.65634 51.568 8.05474C51.2228 7.44328 50.7445 6.96496 50.133 6.61978C49.5314 6.2746 48.8509 6.10201 48.0916 6.10201C47.3322 6.10201 46.6418 6.2746 46.0205 6.61978C45.409 6.96496 44.9258 7.44328 44.5707 8.05474C44.2255 8.65634 44.053 9.3319 44.053 10.0814C44.053 10.831 44.2255 11.5115 44.5707 12.1229C44.9258 12.7245 45.409 13.1979 46.0205 13.5431C46.6418 13.8883 47.3322 14.0609 48.0916 14.0609Z" fill="white"/>
<path d="M65.253 12.6703H59.7499L58.6108 15.2591H57.0871L61.7766 4.90375H63.2411L67.9454 15.2591H66.3921L65.253 12.6703ZM64.7353 11.4868L62.5015 6.41267L60.2677 11.4868H64.7353Z" fill="white"/>
<path d="M73.9851 6.19077H70.4347V4.90375H79V6.19077H75.4496V15.2591H73.9851V6.19077Z" fill="white"/>
<path d="M21.069 7.17788C20.1204 6.63508 19.1666 6.09228 18.218 5.54948C16.0784 4.33741 13.9389 3.12533 11.8045 1.90272C11.4146 1.68138 11.051 1.40208 10.661 1.17547C9.94955 0.759154 9.18542 0.4535 8.38439 0.247974C7.39892 -0.00498027 6.40291 -0.0734888 5.39637 0.0846078C4.55318 0.216355 3.7627 0.511469 3.02492 0.93833C2.97222 0.969949 2.91952 0.996299 2.86155 1.02265C2.60859 1.1544 2.47685 1.38627 2.51901 1.60234C2.57698 1.89218 2.74034 2.05028 3.05127 2.07136C3.59933 2.11352 4.1474 2.14513 4.6902 2.17675C5.55446 2.22418 6.41345 2.29796 7.25664 2.50349C7.65715 2.59834 8.04712 2.73009 8.38966 2.97778C8.45817 3.02521 8.51614 3.08317 8.60573 3.16222C8.35277 3.26235 8.13671 3.35721 7.91537 3.44153C7.02476 3.78407 6.13415 4.12661 5.24354 4.46916C5.06436 4.53766 4.87992 4.6009 4.70074 4.65887C4.42671 4.74319 4.21591 5.02249 4.23699 5.30707C4.30023 6.33997 4.72182 7.19369 5.5123 7.86296C5.68094 8.00525 5.68094 8.00525 5.52811 8.16862C4.8483 8.88005 4.09997 9.51244 3.33584 10.1343C3.14085 10.2924 2.94587 10.4505 2.74561 10.598C2.69291 10.6349 2.61913 10.6613 2.5559 10.6613C1.70217 10.6665 0.848452 10.6613 0 10.6665L1.27531 11.6626C1.76541 11.6626 2.26078 11.6626 2.75088 11.6626C2.91425 11.6626 3.05127 11.6204 3.17774 11.5203C4.19483 10.7456 5.1803 9.9393 6.07618 9.02761C6.21847 8.88532 6.35548 8.73777 6.48196 8.57967C6.55047 8.49008 6.62425 8.47954 6.72438 8.51116C7.08273 8.6271 7.45162 8.6798 7.82578 8.65345C9.18015 8.55332 10.1762 7.89458 10.8033 6.69305C11.0404 6.23984 11.1405 5.74447 11.1564 5.23856C11.1616 5.04884 11.0878 4.97506 10.8981 4.96979C10.74 4.96979 10.5819 4.96979 10.4238 4.96979C10.2394 4.96979 10.1762 5.02249 10.1656 5.20694C10.1393 5.60218 10.0655 5.98161 9.8705 6.32943C9.48053 7.03032 8.90084 7.46772 8.11036 7.62055C6.89301 7.85242 5.72837 7.14099 5.34367 5.95526C5.34367 5.94999 5.3384 5.94472 5.3384 5.94472C5.22246 5.53894 5.22246 5.54948 5.62824 5.39139C6.69803 4.9856 7.75201 4.57455 8.80598 4.15823C9.06421 4.0581 9.31716 3.93163 9.57539 3.82096C9.62282 3.79988 9.68605 3.80515 9.74402 3.81042C10.3079 3.85258 10.8085 3.68921 11.2407 3.32559C11.3303 3.25181 11.4093 3.14641 11.4673 3.04102C11.5252 2.92508 11.5779 2.91981 11.6886 2.97778C12.5529 3.47315 13.4224 3.96852 14.2919 4.46389C16.2576 5.5811 18.2233 6.70359 20.1942 7.8208C20.3207 7.89458 20.3734 7.97363 20.3628 8.12119C20.3523 8.3636 20.3576 8.60602 20.3628 8.84316C20.3628 8.93802 20.3312 8.97491 20.2311 8.96964C20.0888 8.96437 19.9518 8.96437 19.8095 8.96964C19.6303 8.97491 19.5618 9.04342 19.5566 9.21732C19.5566 9.38069 19.5566 9.54406 19.5566 9.70216C19.5566 9.87606 19.6356 9.95511 19.8148 9.96038C20.0625 9.97092 20.0625 9.97092 20.0256 10.2186C19.9887 10.4399 19.9518 10.6613 19.9202 10.8773C19.9044 10.9775 19.8675 11.0302 19.7568 11.0354C19.5776 11.0407 19.3985 11.0618 19.2193 11.0776C18.9452 11.0987 18.7608 11.2831 18.7186 11.5466C18.6238 12.1843 18.5184 12.8219 18.4235 13.4543C18.3708 13.7863 18.3181 14.1183 18.276 14.4556C18.2602 14.5979 18.1864 14.6084 18.0757 14.5873C17.2852 14.4609 16.7214 14.0287 16.3577 13.3226C16.11 12.8377 15.9625 12.3213 15.8834 11.789C15.8202 11.3885 15.6358 11.2252 15.2247 11.2357C13.8229 11.2726 12.4159 11.3095 11.0141 11.3411C10.798 11.3464 10.7242 11.4254 10.7242 11.6415C10.7242 11.768 10.7242 11.8944 10.7242 12.0209C10.7242 12.2212 10.7927 12.2844 10.993 12.2897C11.2143 12.2897 11.4304 12.2949 11.6517 12.2897C11.7677 12.2844 11.7835 12.3371 11.7624 12.432C11.5885 13.3436 11.4146 14.2553 11.2354 15.167C11.0878 15.947 10.9297 16.7216 10.7822 17.5016C10.6926 17.9601 10.6083 18.4238 10.5187 18.8823L11.4146 19.5832C11.4357 19.4778 11.4515 19.3724 11.4725 19.267C11.5727 18.74 11.6728 18.2078 11.7729 17.6808C11.8678 17.1801 11.9679 16.6742 12.0628 16.1736C12.1576 15.6677 12.2525 15.1565 12.3526 14.6506C12.4475 14.1447 12.5476 13.6335 12.6425 13.1276C12.6846 12.9062 12.732 12.6796 12.7637 12.453C12.7795 12.3529 12.8164 12.3055 12.9218 12.3002C13.5594 12.2844 14.1918 12.2633 14.8295 12.2422C14.9401 12.237 14.9559 12.3055 14.977 12.3898C15.0824 12.8641 15.2352 13.3278 15.4566 13.76C15.7833 14.3976 16.2365 14.9246 16.89 15.2513C17.4749 15.5465 18.1021 15.636 18.7555 15.5992C18.94 15.5886 19.1139 15.4305 19.1508 15.2408C19.2087 14.9299 19.2562 14.619 19.3036 14.308C19.3879 13.7863 19.467 13.2593 19.546 12.7376C19.5724 12.5532 19.604 12.374 19.6251 12.1895C19.6356 12.0789 19.683 12.0262 19.799 12.0209C19.9887 12.0156 20.1731 11.9998 20.3628 11.9787C20.6263 11.9471 20.7897 11.7785 20.8266 11.5203C20.9004 11.046 20.9742 10.5664 21.0532 10.0921C21.069 9.98146 21.1006 9.8866 21.2008 9.81282C21.3167 9.7285 21.3641 9.59149 21.3641 9.44393C21.3641 8.84316 21.3641 8.2424 21.3641 7.64163C21.3536 7.4361 21.2535 7.28328 21.069 7.17788Z" fill="white"/>
<path d="M13.0546 5.02271C13.3444 5.02271 13.5763 5.25985 13.571 5.54969C13.5658 5.84481 13.3392 6.07668 13.0441 6.07668C12.7542 6.07668 12.5065 5.829 12.5118 5.53915C12.5276 5.24931 12.7648 5.02271 13.0546 5.02271Z" fill="white"/>
</svg>
