<svg width="53" height="57" viewBox="0 0 53 57" fill="none" xmlns="http://www.w3.org/2000/svg">
<path fill-rule="evenodd" clip-rule="evenodd" d="M26.2151 45.9572C35.954 45.9572 43.8489 38.0622 43.8489 28.3233C43.8489 18.5844 35.954 10.6894 26.2151 10.6894C16.4761 10.6894 8.58119 18.5844 8.58119 28.3233C8.58119 38.0622 16.4761 45.9572 26.2151 45.9572ZM26.2151 54.5384C40.6933 54.5384 52.4301 42.8015 52.4301 28.3233C52.4301 13.8451 40.6933 2.10825 26.2151 2.10825C11.7369 2.10825 0 13.8451 0 28.3233C0 42.8015 11.7369 54.5384 26.2151 54.5384Z" fill="white"/>
<path d="M43.0195 0.0336914L49.6218 5.16479L9.33683 56.9999L2.73459 51.8688L43.0195 0.0336914Z" fill="white"/>
</svg>
