<svg width="110" height="15" viewBox="0 0 110 15" fill="none" xmlns="http://www.w3.org/2000/svg">
<path d="M24.9848 8.79512C24.9848 9.31996 25.0465 9.79335 25.17 10.2153C25.3038 10.6372 25.4891 11.0025 25.7257 11.3113C25.9727 11.6097 26.2712 11.8413 26.6211 12.0059C26.971 12.1706 27.3723 12.2529 27.8251 12.2529C28.2676 12.2529 28.6638 12.1706 29.0137 12.0059C29.3739 11.8413 29.6724 11.6097 29.909 11.3113C30.156 11.0025 30.3413 10.6372 30.4648 10.2153C30.5985 9.79335 30.6654 9.31996 30.6654 8.79512C30.6654 8.27028 30.5985 7.79689 30.4648 7.37496C30.3413 6.94274 30.156 6.57741 29.909 6.27897C29.6724 5.97024 29.3739 5.73354 29.0137 5.56889C28.6638 5.40423 28.2676 5.3219 27.8251 5.3219C27.3723 5.3219 26.971 5.40938 26.6211 5.58432C26.2712 5.74898 25.9727 5.98567 25.7257 6.2944C25.4891 6.59284 25.3038 6.95818 25.17 7.3904C25.0465 7.81233 24.9848 8.28057 24.9848 8.79512ZM33.1507 8.79512C33.1507 9.71102 33.0118 10.5189 32.7339 11.2187C32.4664 11.9082 32.0959 12.4896 31.6225 12.963C31.1491 13.4261 30.5831 13.776 29.9245 14.0127C29.2761 14.2494 28.5764 14.3677 27.8251 14.3677C27.0945 14.3677 26.405 14.2494 25.7566 14.0127C25.1083 13.776 24.5423 13.4261 24.0586 12.963C23.5749 12.4896 23.1942 11.9082 22.9163 11.2187C22.6384 10.5189 22.4995 9.71102 22.4995 8.79512C22.4995 7.87922 22.6436 7.07652 22.9317 6.38702C23.2199 5.68723 23.6058 5.10065 24.0895 4.62726C24.5834 4.15387 25.1494 3.79883 25.7875 3.56214C26.4358 3.32545 27.115 3.2071 27.8251 3.2071C28.5558 3.2071 29.2453 3.32545 29.8936 3.56214C30.5419 3.79883 31.108 4.15387 31.5916 4.62726C32.0753 5.10065 32.4561 5.68723 32.7339 6.38702C33.0118 7.07652 33.1507 7.87922 33.1507 8.79512Z" fill="white"/>
<path d="M41.9347 13.8737C41.5436 13.9869 41.0394 14.0899 40.4219 14.1825C39.8045 14.2854 39.1561 14.3368 38.4769 14.3368C37.7874 14.3368 37.2111 14.2442 36.748 14.059C36.2952 13.8737 35.935 13.6165 35.6675 13.2872C35.3999 12.9475 35.2095 12.5462 35.0963 12.0831C34.9831 11.62 34.9265 11.1106 34.9265 10.5549V6.03198H37.2266V10.277C37.2266 11.018 37.3243 11.5531 37.5199 11.8824C37.7154 12.2117 38.0807 12.3764 38.6159 12.3764C38.7805 12.3764 38.9555 12.3713 39.1407 12.361C39.3259 12.3404 39.4906 12.3198 39.6347 12.2992V6.03198H41.9347V13.8737Z" fill="white"/>
<path d="M44.0166 4.0098L46.3166 3.63932V6.03198H49.0798V7.94611H46.3166V10.8019C46.3166 11.2855 46.399 11.6715 46.5636 11.9596C46.7386 12.2478 47.0833 12.3918 47.5979 12.3918C47.8448 12.3918 48.097 12.3713 48.3543 12.3301C48.6218 12.2786 48.8637 12.2117 49.0798 12.1294L49.4039 13.92C49.1261 14.0333 48.8173 14.131 48.4777 14.2133C48.1381 14.2957 47.7214 14.3368 47.2274 14.3368C46.5996 14.3368 46.0799 14.2545 45.6683 14.0899C45.2567 13.9149 44.9273 13.6782 44.6804 13.3798C44.4334 13.071 44.2584 12.7006 44.1555 12.2683C44.0629 11.8361 44.0166 11.3576 44.0166 10.8327V4.0098Z" fill="white"/>
<path d="M53.1293 8.79512C53.1293 9.31996 53.1911 9.79335 53.3146 10.2153C53.4483 10.6372 53.6336 11.0025 53.8703 11.3113C54.1173 11.6097 54.4157 11.8413 54.7656 12.0059C55.1155 12.1706 55.5168 12.2529 55.9696 12.2529C56.4122 12.2529 56.8084 12.1706 57.1583 12.0059C57.5184 11.8413 57.8169 11.6097 58.0536 11.3113C58.3006 11.0025 58.4858 10.6372 58.6093 10.2153C58.7431 9.79335 58.81 9.31996 58.81 8.79512C58.81 8.27028 58.7431 7.79689 58.6093 7.37496C58.4858 6.94274 58.3006 6.57741 58.0536 6.27897C57.8169 5.97024 57.5184 5.73354 57.1583 5.56889C56.8084 5.40423 56.4122 5.3219 55.9696 5.3219C55.5168 5.3219 55.1155 5.40938 54.7656 5.58432C54.4157 5.74898 54.1173 5.98567 53.8703 6.2944C53.6336 6.59284 53.4483 6.95818 53.3146 7.3904C53.1911 7.81233 53.1293 8.28057 53.1293 8.79512ZM61.2952 8.79512C61.2952 9.71102 61.1563 10.5189 60.8785 11.2187C60.6109 11.9082 60.2404 12.4896 59.767 12.963C59.2936 13.4261 58.7276 13.776 58.069 14.0127C57.4207 14.2494 56.7209 14.3677 55.9696 14.3677C55.239 14.3677 54.5495 14.2494 53.9012 14.0127C53.2528 13.776 52.6868 13.4261 52.2031 12.963C51.7195 12.4896 51.3387 11.9082 51.0608 11.2187C50.783 10.5189 50.644 9.71102 50.644 8.79512C50.644 7.87922 50.7881 7.07652 51.0763 6.38702C51.3644 5.68723 51.7503 5.10065 52.234 4.62726C52.728 4.15387 53.294 3.79883 53.932 3.56214C54.5804 3.32545 55.2596 3.2071 55.9696 3.2071C56.7003 3.2071 57.3898 3.32545 58.0381 3.56214C58.6865 3.79883 59.2525 4.15387 59.7362 4.62726C60.2198 5.10065 60.6006 5.68723 60.8785 6.38702C61.1563 7.07652 61.2952 7.87922 61.2952 8.79512Z" fill="white"/>
<path d="M66.6678 2.17285C67.1 2.17285 67.4962 2.21916 67.8564 2.31178C68.2166 2.39411 68.4944 2.47644 68.6899 2.55876L68.2423 4.39571C68.0365 4.30309 67.8101 4.2362 67.5631 4.19504C67.3264 4.14358 67.1051 4.11785 66.8993 4.11785C66.6215 4.11785 66.3848 4.15902 66.1892 4.24135C66.004 4.31338 65.8548 4.41629 65.7416 4.55008C65.6387 4.68386 65.5615 4.84337 65.51 5.02861C65.4689 5.21385 65.4483 5.41452 65.4483 5.63063V6.03198H68.2886V7.94611H65.4483V14.1516H63.1482V5.59976C63.1482 4.55008 63.4415 3.7165 64.0281 3.09904C64.625 2.48158 65.5049 2.17285 66.6678 2.17285Z" fill="white"/>
<path d="M72.7324 12.3147C73.072 12.3147 73.3498 12.2889 73.566 12.2375C73.7924 12.1757 73.9725 12.0985 74.1062 12.0059C74.24 11.903 74.3326 11.7847 74.3841 11.6509C74.4356 11.5171 74.4613 11.3679 74.4613 11.2032C74.4613 10.8533 74.2966 10.5652 73.9673 10.3388C73.638 10.1021 73.072 9.84995 72.2693 9.58239C71.9194 9.45889 71.5695 9.31996 71.2196 9.1656C70.8697 9.00094 70.5558 8.80027 70.278 8.56357C70.0001 8.31659 69.7737 8.0233 69.5988 7.68369C69.4238 7.3338 69.3364 6.91187 69.3364 6.4179C69.3364 5.92393 69.429 5.48141 69.6142 5.09036C69.7994 4.68901 70.0619 4.3494 70.4015 4.07154C70.7411 3.79369 71.1527 3.58272 71.6364 3.43865C72.1201 3.28428 72.6655 3.2071 73.2727 3.2071C73.993 3.2071 74.6156 3.28428 75.1405 3.43865C75.6653 3.59301 76.0975 3.76281 76.4372 3.94805L75.7425 5.84674C75.4441 5.69238 75.1096 5.5586 74.7391 5.4454C74.379 5.3219 73.9416 5.26016 73.427 5.26016C72.8507 5.26016 72.4339 5.34249 72.1767 5.50714C71.9297 5.66151 71.8062 5.90335 71.8062 6.23266C71.8062 6.42819 71.8525 6.59284 71.9451 6.72663C72.0377 6.86041 72.1664 6.9839 72.331 7.0971C72.506 7.20001 72.7015 7.29778 72.9176 7.3904C73.144 7.47273 73.391 7.5602 73.6586 7.65282C74.2143 7.85864 74.698 8.06446 75.1096 8.27028C75.5213 8.46581 75.8609 8.69736 76.1284 8.96492C76.4063 9.23249 76.6121 9.54637 76.7459 9.90655C76.8797 10.2667 76.9466 10.7041 76.9466 11.2187C76.9466 12.2169 76.5967 12.9939 75.8969 13.5496C75.1971 14.095 74.1423 14.3677 72.7324 14.3677C72.259 14.3677 71.8319 14.3368 71.4512 14.2751C71.0704 14.2236 70.7308 14.1567 70.4323 14.0744C70.1442 13.9921 69.8921 13.9046 69.676 13.812C69.4701 13.7194 69.2952 13.6319 69.1511 13.5496L69.8303 11.6354C70.1493 11.8104 70.5404 11.9699 71.0035 12.114C71.4769 12.2478 72.0532 12.3147 72.7324 12.3147Z" fill="white"/>
<path d="M78.5679 4.0098L80.8679 3.63932V6.03198H83.6311V7.94611H80.8679V10.8019C80.8679 11.2855 80.9502 11.6715 81.1149 11.9596C81.2899 12.2478 81.6346 12.3918 82.1492 12.3918C82.3961 12.3918 82.6483 12.3713 82.9055 12.3301C83.1731 12.2786 83.4149 12.2117 83.6311 12.1294L83.9552 13.92C83.6774 14.0333 83.3686 14.131 83.029 14.2133C82.6894 14.2957 82.2726 14.3368 81.7787 14.3368C81.1509 14.3368 80.6312 14.2545 80.2196 14.0899C79.8079 13.9149 79.4786 13.6782 79.2317 13.3798C78.9847 13.071 78.8097 12.7006 78.7068 12.2683C78.6142 11.8361 78.5679 11.3576 78.5679 10.8327V4.0098Z" fill="white"/>
<path d="M92.7973 10.0764C92.7973 10.7144 92.7047 11.301 92.5195 11.8361C92.3342 12.361 92.0667 12.8138 91.7168 13.1945C91.3669 13.565 90.945 13.8532 90.451 14.059C89.9673 14.2648 89.4219 14.3677 88.8147 14.3677C88.2178 14.3677 87.6724 14.2648 87.1785 14.059C86.6948 13.8532 86.278 13.565 85.9281 13.1945C85.5782 12.8138 85.3055 12.361 85.11 11.8361C84.9144 11.301 84.8167 10.7144 84.8167 10.0764C84.8167 9.43831 84.9144 8.85687 85.11 8.33203C85.3158 7.80718 85.5936 7.35953 85.9435 6.98905C86.3037 6.61857 86.7256 6.33042 87.2093 6.1246C87.7033 5.91878 88.2384 5.81587 88.8147 5.81587C89.4013 5.81587 89.9364 5.91878 90.4201 6.1246C90.9141 6.33042 91.336 6.61857 91.6859 6.98905C92.0358 7.35953 92.3085 7.80718 92.5041 8.33203C92.6996 8.85687 92.7973 9.43831 92.7973 10.0764ZM90.451 10.0764C90.451 9.36627 90.3069 8.81056 90.0188 8.40921C89.7409 7.99757 89.3396 7.79175 88.8147 7.79175C88.2899 7.79175 87.8834 7.99757 87.5952 8.40921C87.3071 8.81056 87.163 9.36627 87.163 10.0764C87.163 10.7864 87.3071 11.3524 87.5952 11.7744C87.8834 12.186 88.2899 12.3918 88.8147 12.3918C89.3396 12.3918 89.7409 12.186 90.0188 11.7744C90.3069 11.3524 90.451 10.7864 90.451 10.0764Z" fill="white"/>
<path d="M94.1931 10.0918C94.1931 9.5052 94.2858 8.95463 94.471 8.44008C94.6665 7.91524 94.9444 7.46244 95.3046 7.08167C95.6648 6.69061 96.1021 6.38188 96.6167 6.15548C97.1312 5.92907 97.7178 5.81587 98.3764 5.81587C98.8087 5.81587 99.2049 5.85704 99.5651 5.93936C99.9252 6.0114 100.275 6.11946 100.615 6.26353L100.136 8.10048C99.9201 8.01815 99.6834 7.94611 99.4261 7.88437C99.1689 7.82262 98.8807 7.79175 98.5617 7.79175C97.8825 7.79175 97.3731 8.00271 97.0335 8.42465C96.7042 8.84658 96.5395 9.40229 96.5395 10.0918C96.5395 10.8225 96.6939 11.3885 97.0026 11.7898C97.3216 12.1912 97.8722 12.3918 98.6543 12.3918C98.9322 12.3918 99.2306 12.3661 99.5496 12.3147C99.8686 12.2632 100.162 12.1809 100.43 12.0677L100.754 13.9509C100.486 14.0641 100.152 14.1619 99.7503 14.2442C99.3489 14.3265 98.9064 14.3677 98.4228 14.3677C97.6818 14.3677 97.0438 14.2597 96.5086 14.0435C95.9735 13.8171 95.531 13.5136 95.1811 13.1328C94.8415 12.752 94.5893 12.3044 94.4247 11.7898C94.2703 11.265 94.1931 10.699 94.1931 10.0918Z" fill="white"/>
<path d="M104.597 8.96492C104.824 8.71794 105.055 8.46066 105.292 8.1931C105.539 7.92553 105.776 7.66311 106.002 7.40583C106.228 7.13827 106.439 6.88614 106.635 6.64945C106.841 6.41275 107.016 6.20693 107.16 6.03198H109.892C109.347 6.65974 108.812 7.26176 108.287 7.83806C107.772 8.40406 107.206 8.99065 106.589 9.59782C106.897 9.87568 107.216 10.2101 107.546 10.6012C107.875 10.982 108.194 11.3782 108.503 11.7898C108.812 12.2014 109.095 12.6131 109.352 13.0247C109.609 13.4364 109.825 13.812 110 14.1516H107.361C107.196 13.884 107.005 13.5907 106.789 13.2717C106.584 12.9424 106.362 12.6182 106.126 12.2992C105.889 11.9699 105.637 11.656 105.369 11.3576C105.112 11.0591 104.855 10.807 104.597 10.6012V14.1516H102.297V2.54333L104.597 2.17285V8.96492Z" fill="white"/>
<path fill-rule="evenodd" clip-rule="evenodd" d="M6.6422 11.2861C9.03563 11.2861 10.9759 9.34581 10.9759 6.95238C10.9759 4.55894 9.03563 2.61868 6.6422 2.61868C4.24876 2.61868 2.3085 4.55894 2.3085 6.95238C2.3085 9.34581 4.24876 11.2861 6.6422 11.2861ZM6.6422 13.395C10.2004 13.395 13.0848 10.5105 13.0848 6.95238C13.0848 3.39422 10.2004 0.509766 6.6422 0.509766C3.08404 0.509766 0.199585 3.39422 0.199585 6.95238C0.199585 10.5105 3.08404 13.395 6.6422 13.395Z" fill="#29D2CC"/>
<path d="M10.7721 0L12.3947 1.26102L2.49424 14L0.871676 12.739L10.7721 0Z" fill="#29D2CC"/>
</svg>
