<svg width="384" height="171" viewBox="0 0 384 171" fill="none" xmlns="http://www.w3.org/2000/svg">
<path d="M326.082 165.002H34.9019C24.4648 165.002 14.1599 162.095 7.81844 156.943C1.47695 151.791 7.81844 128.671 7.81844 119.951V75.0321C7.81844 53.1012 19.3124 16.2413 20.5014 9.89978C21.6904 3.55829 26.8429 8.71075 34.9019 9.89978C42.9608 11.0888 43.4893 21.9222 49.8308 29.4527C56.1723 36.9832 72.4223 42.6641 87.3512 40.4182C102.28 38.1722 126.061 8.18229 140.99 5.27577C155.919 2.36926 180.756 23.1112 205.594 35.7942C230.431 48.4771 283.409 75.0321 292.657 77.9386C300.055 80.2638 340.746 87.7151 360.167 91.1501C363.03 94.9814 369.679 104.626 373.379 112.553C378.003 122.461 380.909 136.729 373.379 148.223C367.354 157.419 339.337 163.24 326.082 165.002Z" stroke="#151D31" stroke-width="10"/>
<path d="M5.66052 137.511H88.2319" stroke="#151D31" stroke-width="10"/>
<path d="M119.719 17.2983C137.379 26.7665 176.74 47.0769 192.911 52.5729C213.124 59.4428 258.571 81.3738 267.291 81.3738C274.267 81.3738 284.466 77.4984 288.693 75.5607" stroke="#151D31" stroke-width="10"/>
<path d="M152.484 34.6052C150.942 41.1229 145.217 55.902 134.648 62.8777C121.437 71.5972 108.622 80.3168 103.469 90.6217C99.3472 98.8656 94.8817 110.527 93.1642 115.327M222.9 65.7842C221.711 70.9807 217.959 82.2985 212.463 85.9977C205.593 90.6217 186.041 111.892 184.852 119.951M246.02 75.0322C242.982 80.4489 238.728 92.4184 246.02 96.9632C255.136 102.644 295.431 104.89 316.834 100.927C333.956 97.7558 351.712 92.7355 358.45 90.6217M9.53589 75.0322C10.9011 69.2192 15.3489 57.1439 22.2189 55.3472C30.8063 53.1012 40.0543 52.5728 45.8673 47.9488C50.5177 44.2496 53.5299 37.5117 54.4547 34.6052" stroke="#151D31" stroke-width="10"/>
<path d="M9.00757 113.609C50.0951 113.653 139.431 115.115 168.073 120.611C203.876 127.481 272.443 127.481 311.681 124.046C343.072 121.298 365.54 115.943 372.85 113.609" stroke="#151D31" stroke-width="10"/>
</svg>
