<svg width="69" height="17" viewBox="0 0 69 17" fill="none" xmlns="http://www.w3.org/2000/svg">
<path d="M59.1219 10L54 17L59.4673 15.0253L61 12.7286L59.1219 10Z" fill="#009F56"/>
<path d="M63.4274 9.33412L63.4323 9.32773L62.4164 7.93887L63.6756 8.97174L66.9468 4.12029L68.1633 4.27195L68.2356 0L62.1567 3.52484L63.6592 3.71162L61.4992 6.68251L59.0351 3.29336L54 1.08555L59.571 9.33571L59.5693 9.33731L61.4992 12.1917L63.3518 14.9343L69 17L63.4274 9.33412Z" fill="#08A05C"/>
<path d="M4.7917 10.1677C3.85031 9.79745 3.04698 9.47424 3.04698 8.96274C3.04698 8.17197 4.01348 8.10921 4.30218 8.10921C5.10457 8.08652 5.88698 8.36148 6.49877 8.88116L6.83767 9.22006L7.94224 7.15213L7.76965 6.96698C7.72258 6.91991 6.62429 5.76514 4.33356 5.76514C2.04283 5.76514 0.407938 7.06426 0.407938 8.92509C0.407938 10.9993 2.23425 11.7493 3.69969 12.3267C4.64108 12.7095 5.47265 13.0421 5.47265 13.5819C5.47265 14.1216 4.82936 14.4542 4.19235 14.4542C3.23484 14.4295 2.31996 14.053 1.62234 13.3967L1.30854 13.0829L0 15.0347L0.191417 15.2419C1.26454 16.2742 2.70351 16.8385 4.19235 16.8108C6.49877 16.8108 8.11169 15.4866 8.11169 13.5913C8.11169 11.492 6.2697 10.7671 4.7917 10.1803" fill="white"/>
<path d="M14.9651 8.39172V5.92213H12.0812V2.8877L9.2194 3.37408V13.083C9.21247 13.6325 9.26083 14.1813 9.36375 14.721C9.44405 15.1677 9.6326 15.5879 9.9129 15.9449C10.2039 16.2881 10.5855 16.5426 11.0143 16.6791C11.5823 16.853 12.1747 16.9335 12.7685 16.9176C13.1283 16.9161 13.4877 16.893 13.8448 16.8486C14.2097 16.8007 14.5646 16.6948 14.896 16.5348L14.9651 16.5034V13.993L14.7705 14.1342C14.5892 14.2544 14.3834 14.3326 14.168 14.3633C13.9229 14.4109 13.674 14.4361 13.4243 14.4386C12.8877 14.4386 12.53 14.3037 12.3574 14.037C12.1565 13.6773 12.0608 13.2685 12.0812 12.8571V8.39172H14.9651Z" fill="white"/>
<path d="M26.7293 8.97549C26.441 8.30345 26.0175 7.69787 25.4852 7.19638C24.953 6.69489 24.3233 6.30819 23.6353 6.0603C22.1691 5.52482 20.5608 5.52482 19.0946 6.0603C18.4072 6.30856 17.7781 6.69542 17.2464 7.1969C16.7147 7.69837 16.2917 8.30375 16.0037 8.97549C15.3969 10.4554 15.3969 12.1147 16.0037 13.5946C16.2921 14.2666 16.7155 14.8722 17.2478 15.3737C17.7801 15.8752 18.4097 16.2619 19.0978 16.5098C20.5639 17.0453 22.1722 17.0453 23.6384 16.5098C24.3264 16.2619 24.9561 15.8752 25.4884 15.3737C26.0206 14.8722 26.4441 14.2666 26.7325 13.5946C27.3434 12.1155 27.3434 10.4546 26.7325 8.97549H26.7293ZM24.3256 11.285C24.3266 11.6723 24.2597 12.0568 24.1279 12.421C23.9492 12.891 23.6538 13.3077 23.2696 13.6322C22.8855 13.9566 22.4251 14.178 21.9319 14.2756C21.4386 14.3732 20.9286 14.3437 20.4499 14.19C19.9711 14.0363 19.5393 13.7634 19.195 13.3969C18.9368 13.1172 18.7372 12.7886 18.6082 12.4304C18.3405 11.6968 18.3405 10.8921 18.6082 10.1585C18.7372 9.80034 18.9368 9.47169 19.195 9.19201C19.6275 8.75018 20.1832 8.44912 20.7896 8.32819C21.3959 8.20726 22.0246 8.27209 22.5935 8.5142C22.9475 8.67415 23.2671 8.90113 23.5349 9.1826C23.7904 9.46257 23.9887 9.78984 24.1185 10.146C24.2522 10.5108 24.3202 10.8965 24.3194 11.285" fill="white"/>
<path d="M35.4278 13.3716C35.2034 13.6678 34.912 13.9065 34.5774 14.0683C34.2393 14.2287 33.8691 14.3102 33.4948 14.3068C33.0892 14.3167 32.686 14.2408 32.3118 14.084C31.9375 13.9272 31.6007 13.693 31.3233 13.3967C31.0696 13.1129 30.8754 12.781 30.7522 12.4208C30.4846 11.6861 30.4846 10.8805 30.7522 10.1458C30.882 9.78891 31.0815 9.46143 31.339 9.18242C31.6155 8.8845 31.952 8.64853 32.3263 8.49005C32.7006 8.33158 33.1042 8.25419 33.5105 8.26299C33.8505 8.26593 34.1837 8.3579 34.477 8.52972C34.8262 8.72921 35.1435 8.9799 35.4184 9.27342L35.5031 9.36129L37.4863 7.37808L37.4079 7.29335C36.9066 6.73684 36.2808 6.30674 35.5816 6.03816C34.1853 5.51039 32.6443 5.51039 31.248 6.03816C30.56 6.28605 29.9303 6.67275 29.3981 7.17424C28.8658 7.67573 28.4423 8.28131 28.154 8.95335C27.5431 10.4325 27.5431 12.0934 28.154 13.5725C28.4423 14.2445 28.8658 14.8501 29.3981 15.3516C29.9303 15.8531 30.56 16.2398 31.248 16.4877C31.975 16.7573 32.7446 16.8934 33.5199 16.8893C33.8039 16.8841 34.0871 16.8578 34.3672 16.8109C34.7147 16.7533 35.0568 16.6672 35.3902 16.5535C35.7574 16.4307 36.1124 16.2742 36.4508 16.086C36.7954 15.8986 37.1123 15.6641 37.3922 15.3894L37.4738 15.3078L35.5502 13.2367L35.4278 13.3716Z" fill="white"/>
<path d="M44.0637 10.8113L48.6828 5.9223H44.9831L41.1171 10.0801V0.380615L38.2552 0.870141V16.6479H41.1171V11.4734L45.1525 16.6479H48.9432L44.0637 10.8113Z" fill="white"/>
</svg>
